<?xml version="1.0" encoding="utf-8"?>
<!-- Generator: Adobe Illustrator 24.0.2, SVG Export Plug-In . SVG Version: 6.00 Build 0)  -->
<svg version="1.1" id="Lager_1" xmlns="http://www.w3.org/2000/svg" xmlns:xlink="http://www.w3.org/1999/xlink" x="0px" y="0px"
	 viewBox="0 0 100 50.1" style="enable-background:new 0 0 100 50.1;" xml:space="preserve">
<style type="text/css">
	.st0{fill:#E8E5DE;stroke:#471F00;stroke-miterlimit:10;}
	.st1{fill:#EE2757;}
	.st2{fill:#471F00;}
</style>
<title>LOGGAVapor - Logo</title>
<g>
	<path class="st0" d="M8.1,7h84.2C93.2,7,94,7.7,94,8.7v32.7c0,0.9-0.7,1.7-1.7,1.7H8.1c-0.9,0-1.7-0.7-1.7-1.7V8.7
		C6.4,7.7,7.1,7,8.1,7z"/>
	<path class="st1" d="M19.8,32.8h-2.3l-5.2-15.7h3.2l3.1,10.2l3.1-10.2H25L19.8,32.8z"/>
	<path class="st1" d="M35,32.8L34.1,30h-5.6l-0.9,2.8h-3.2l5.7-15.7h2.4l5.7,15.7H35z M31.4,21.8l-2,5.7h3.9L31.4,21.8z"/>
	<path class="st1" d="M46.3,26.9h-3v5.9h-3.1V17.2h6.1c2.7-0.1,5,2,5.1,4.7s-2,5-4.7,5.1C46.5,26.9,46.4,26.9,46.3,26.9z M46.1,19.9
		h-2.9v4.3h2.9c1.2,0.1,2.2-0.8,2.3-2s-0.8-2.2-2-2.3C46.3,19.9,46.2,19.9,46.1,19.9z"/>
	<path class="st1" d="M63.5,31.3c-2.4,2.3-6.1,2.3-8.5,0c-1.6-1.6-1.5-3.5-1.5-6.3s0-4.7,1.5-6.3c2.4-2.3,6.1-2.3,8.5,0
		c1.6,1.6,1.5,3.5,1.5,6.3S65.1,29.7,63.5,31.3z M61.2,20.6c-0.5-0.6-1.2-0.9-2-0.8c-0.8,0-1.5,0.3-2,0.8c-0.6,0.7-0.8,1.4-0.8,4.4
		s0.2,3.7,0.8,4.4c0.5,0.6,1.2,0.9,2,0.8c0.8,0,1.5-0.3,2-0.8C61.8,28.7,62,28,62,25S61.8,21.3,61.2,20.6z"/>
	<path class="st1" d="M76.5,32.8l-3.1-6.3h-2.2v6.3h-3.1V17.2h6.1c2.6-0.2,4.9,1.8,5.1,4.4c0,0.2,0,0.3,0,0.5
		c0.1,1.9-1.1,3.5-2.9,4.1l3.5,6.7h-3.4V32.8z M74.1,19.9h-2.9V24h2.9c1.1,0.1,2.1-0.8,2.2-1.9s-0.8-2.1-1.9-2.2
		C74.3,19.9,74.2,19.9,74.1,19.9L74.1,19.9z"/>
	<path class="st2" d="M83.3,17.9v3.5h-0.8v-3.5h-1.1v-0.7h3.1v0.7H83.3z"/>
	<path class="st2" d="M88.1,21.4V19l-0.8,1.6h-0.6L85.9,19v2.5H85v-4.3h0.8l1.1,2.3l1.1-2.3h0.8v4.3L88.1,21.4L88.1,21.4z"/>
</g>
</svg>
