<svg id="Lager_1" data-name="Lager 1" xmlns="http://www.w3.org/2000/svg" viewBox="0 0 87.6 36.1"><defs><style>.cls-1{fill:#e8e5de;}.cls-2{fill:#471f00;}.cls-3{fill:#ee2757;}</style></defs><title>HAHAHAHA_NEW</title><path class="cls-1" d="M1.7001,35.59961A1.188,1.188,0,0,1,.4999,34.40039V1.7002A1.12478,1.12478,0,0,1,1.7001.5H85.8998A1.18853,1.18853,0,0,1,87.1,1.7002V34.40039a1.18806,1.18806,0,0,1-1.2002,1.19922Z"/><path class="cls-2" d="M85.9,1a.68555.68555,0,0,1,.7.7V34.4a.68555.68555,0,0,1-.7.7H1.7a.68555.68555,0,0,1-.7-.7V1.7A.63721.63721,0,0,1,1.7,1H85.9m0-1H1.7A1.62752,1.62752,0,0,0,0,1.7V34.4a1.68548,1.68548,0,0,0,1.7,1.7H85.9a1.68548,1.68548,0,0,0,1.7-1.7V1.7A1.68548,1.68548,0,0,0,85.9,0Z"/><path class="cls-3" d="M13.4,25.8H11.1L5.9,10.1H9.1l3.1,10.2,3.1-10.2h3.3Z"/><path class="cls-3" d="M28.6,25.8,27.7,23H22.1l-.9,2.8H18l5.7-15.7h2.4l5.7,15.7ZM25,14.8l-2,5.7h3.9Z"/><path class="cls-3" d="M39.9,19.9h-3v5.9H33.8V10.2h6.1a4.90408,4.90408,0,1,1,.4,9.8A.75592.75592,0,0,0,39.9,19.9Zm-.2-7H36.8v4.3h2.9a2.15523,2.15523,0,1,0,.3-4.3Z"/><path class="cls-3" d="M57.1,24.3a6.098,6.098,0,0,1-8.5,0c-1.6-1.6-1.5-3.5-1.5-6.3s0-4.7,1.5-6.3a6.098,6.098,0,0,1,8.5,0c1.6,1.6,1.5,3.5,1.5,6.3S58.7,22.7,57.1,24.3ZM54.8,13.6a2.17416,2.17416,0,0,0-2-.8,2.79214,2.79214,0,0,0-2,.8c-.6.7-.8,1.4-.8,4.4s.2,3.7.8,4.4a2.17416,2.17416,0,0,0,2,.8,2.79214,2.79214,0,0,0,2-.8c.6-.7.8-1.4.8-4.4S55.4,14.3,54.8,13.6Z"/><path class="cls-3" d="M70.1,25.8,67,19.5H64.8v6.3H61.7V10.2h6.1a4.79236,4.79236,0,0,1,5.1,4.4v.5A4.08359,4.08359,0,0,1,70,19.2l3.5,6.7H70.1ZM67.7,12.9H64.8V17h2.9a2.05548,2.05548,0,0,0,.3-4.1Z"/><path class="cls-2" d="M76.9,10.9v3.5h-.8V10.9H75v-.7h3.1v.7Z"/><path class="cls-2" d="M81.7,14.4V12l-.8,1.6h-.6L79.5,12v2.5h-.9V10.2h.8l1.1,2.3,1.1-2.3h.8v4.3l-.7-.1Z"/></svg>